<?xml version="1.0" standalone="no"?>
<!DOCTYPE svg PUBLIC "-//W3C//DTD SVG 20010904//EN"
 "http://www.w3.org/TR/2001/REC-SVG-20010904/DTD/svg10.dtd">
<svg version="1.0" xmlns="http://www.w3.org/2000/svg"
 width="494.000000pt" height="494.000000pt" viewBox="0 0 494.000000 494.000000"
 preserveAspectRatio="xMidYMid meet">
<metadata>
Created by potrace 1.11, written by Peter Selinger 2001-2013
</metadata>
<g transform="translate(0.000000,494.000000) scale(0.100000,-0.100000)"
fill="#000000" stroke="none">
<path d="M2080 4701 c-111 -30 -338 -137 -390 -185 -14 -13 -58 -44 -97 -69
-45 -29 -119 -93 -192 -169 -106 -108 -126 -135 -171 -223 -39 -79 -53 -120
-66 -194 -23 -143 -35 -158 -99 -131 -70 30 -87 29 -98 -3 -6 -21 -6 -36 3
-52 15 -28 10 -60 -19 -135 -16 -42 -20 -66 -15 -102 7 -53 4 -55 -30 -32 -50
32 -35 -23 27 -101 29 -36 31 -45 29 -99 -4 -76 -14 -95 -46 -89 -14 3 -31 11
-37 19 -6 8 -18 14 -25 14 -17 0 -19 -26 -3 -36 6 -3 19 -25 29 -49 10 -24 23
-46 29 -49 6 -4 11 -28 11 -53 0 -30 7 -53 20 -70 14 -18 17 -30 10 -38 -27
-32 -18 -174 11 -166 8 2 25 3 37 2 13 0 31 8 40 20 16 19 18 19 52 3 59 -29
65 -59 25 -114 -14 -19 -25 -44 -25 -57 0 -19 5 -23 33 -23 47 0 54 9 62 80 8
79 31 174 52 213 13 26 18 28 51 22 20 -4 38 -8 40 -10 2 -2 10 -42 18 -90 19
-107 40 -157 92 -215 29 -31 38 -48 31 -56 -19 -23 50 -106 112 -137 96 -48
265 -57 397 -20 48 13 57 21 109 91 102 136 122 166 154 225 18 32 44 67 57
78 57 44 126 6 136 -74 9 -74 20 -242 17 -257 -11 -53 -11 -105 -1 -130 13
-31 57 -55 110 -59 14 -1 52 -24 185 -110 22 -15 99 -51 170 -80 83 -34 140
-64 157 -82 15 -16 34 -29 41 -29 8 0 16 -3 20 -6 8 -9 -15 -44 -30 -44 -13 0
-28 -54 -19 -68 7 -11 -28 -45 -37 -36 -3 3 -11 3 -17 -1 -9 -6 -9 -10 1 -16
11 -8 10 -12 -6 -25 -11 -8 -19 -24 -17 -34 2 -13 -4 -21 -20 -25 -13 -3 -31
-20 -41 -36 -12 -22 -22 -29 -36 -24 -13 4 -23 -2 -35 -20 -9 -14 -25 -25 -35
-25 -34 0 -88 -29 -94 -50 -4 -14 -13 -20 -35 -20 -37 0 -83 -53 -63 -73 20
-20 12 -27 -28 -27 -22 0 -43 -4 -46 -10 -9 -14 -48 -13 -63 2 -8 8 -15 8 -21
3 -13 -15 -41 -107 -38 -130 1 -14 -4 -20 -18 -20 -28 0 -45 -13 -39 -30 9
-21 -5 -38 -20 -26 -10 8 -18 5 -31 -9 -10 -11 -26 -20 -36 -20 -10 0 -30 -11
-46 -23 -39 -33 -83 -46 -179 -54 -57 -4 -88 -2 -97 6 -13 11 -106 33 -137 33
-53 -1 -230 101 -230 132 0 6 -20 34 -45 63 -25 28 -45 57 -45 65 0 7 -22 37
-50 66 -27 29 -50 59 -50 67 0 7 -9 16 -19 20 -13 4 -28 27 -41 61 -21 57 -40
84 -59 84 -6 0 -11 6 -11 14 0 7 -7 19 -15 26 -9 7 -13 20 -10 28 3 7 -4 27
-16 43 -11 16 -18 29 -15 29 3 0 -6 29 -19 65 -13 36 -21 74 -18 85 3 11 0 50
-7 87 -17 97 -15 94 -45 80 -25 -11 -26 -15 -20 -67 5 -40 13 -61 32 -79 23
-22 24 -28 18 -77 -6 -53 8 -124 25 -124 14 0 21 -32 10 -45 -7 -9 2 -22 34
-49 54 -47 65 -84 61 -201 -2 -73 0 -92 14 -103 12 -10 13 -15 4 -18 -7 -3
-13 -10 -13 -14 0 -15 44 -57 68 -64 15 -5 22 -15 22 -34 0 -15 7 -40 15 -56
8 -15 15 -34 15 -42 0 -7 6 -17 13 -21 7 -4 18 -20 25 -36 6 -15 23 -32 37
-39 14 -6 25 -19 25 -28 0 -23 26 -45 35 -30 4 6 21 8 43 4 56 -10 70 -20 65
-46 -3 -17 7 -35 42 -70 25 -26 55 -50 65 -53 17 -5 20 -16 20 -61 0 -39 -4
-54 -14 -54 -22 0 -97 -81 -117 -125 -14 -33 -17 -76 -20 -240 -1 -110 -2
-226 -1 -257 l2 -58 1214 0 c1049 0 1215 2 1226 15 13 16 5 51 -16 73 -17 17
-9 32 17 32 13 0 19 7 19 22 0 33 -32 97 -52 104 -10 3 -18 9 -18 14 0 5 -3
15 -6 23 -4 11 4 17 25 22 41 9 41 37 1 52 -22 8 -30 18 -30 36 0 14 -6 27
-12 30 -8 3 -3 12 14 26 33 27 36 64 8 88 -24 21 -25 32 -5 69 19 37 19 78 0
94 -20 16 -49 5 -41 -16 7 -19 -12 -47 -25 -38 -16 10 -9 43 13 64 17 16 19
23 10 32 -18 18 -15 51 3 44 15 -5 45 18 45 35 0 5 -13 9 -30 9 -24 0 -30 4
-30 23 -1 20 -2 20 -13 5 -10 -12 -17 -14 -31 -6 -16 9 -7 16 60 43 97 39 193
84 208 96 6 5 25 20 42 33 41 34 84 97 94 141 14 64 -29 300 -95 515 -12 41
-35 116 -50 165 -14 50 -35 113 -45 140 -11 28 -40 119 -66 203 -42 139 -45
154 -31 170 10 11 16 37 16 72 1 30 3 91 5 135 3 61 1 86 -12 110 -12 22 -17
58 -17 135 -1 58 -5 160 -10 228 -6 91 -5 141 5 193 11 58 11 85 1 147 -7 43
-17 84 -21 92 -4 8 1 39 11 70 21 61 25 170 8 218 -6 16 -36 52 -67 80 -31 27
-77 68 -102 91 -25 23 -74 61 -110 85 -36 24 -87 63 -115 88 -27 24 -77 65
-110 90 -61 47 -106 85 -160 137 -37 36 -144 95 -216 120 -30 10 -79 31 -108
47 -30 16 -68 36 -85 46 -46 24 -288 98 -322 98 -11 0 -49 11 -85 25 -128 51
-367 69 -489 36z m360 -381 c19 -6 50 -13 68 -15 50 -7 75 -23 67 -43 -4 -9
-8 -51 -10 -92 -2 -41 -7 -110 -10 -152 -6 -62 -4 -81 9 -100 22 -31 21 -75
-2 -82 -24 -8 -154 9 -181 23 -25 14 -27 35 -6 75 19 37 19 38 -7 34 -18 -2
-24 -11 -26 -38 -5 -55 -13 -58 -113 -55 -69 2 -95 7 -110 21 -28 25 -24 50
12 76 18 13 41 43 53 68 42 91 122 224 153 257 35 36 49 39 103 23z m-321 -35
c25 -13 40 -39 41 -71 0 -6 -12 -29 -26 -50 -22 -32 -27 -54 -32 -123 -4 -73
-9 -88 -32 -114 -26 -29 -27 -30 -86 -19 -34 6 -64 6 -70 1 -6 -5 -24 -8 -40
-7 -16 1 -37 -2 -46 -6 -13 -6 -18 -2 -23 21 -3 15 -10 42 -16 58 -15 41 -12
75 9 105 10 14 23 43 30 65 14 47 80 103 158 134 59 24 96 26 133 6z m648 -66
c34 -11 67 -27 73 -34 15 -18 4 -52 -19 -60 -13 -4 -21 -20 -26 -51 -3 -25 -4
-48 -1 -51 3 -3 18 16 33 42 36 60 92 125 108 125 7 0 25 -14 40 -31 22 -27
25 -38 20 -73 -10 -74 -13 -156 -5 -156 14 0 42 71 37 92 -9 35 10 68 38 68
52 0 175 -82 175 -116 0 -26 -24 -44 -50 -37 -10 3 -21 -5 -28 -19 -23 -44
-52 -93 -96 -158 -24 -36 -51 -78 -61 -94 -15 -25 -21 -28 -55 -23 -21 2 -51
11 -66 19 -27 12 -29 18 -29 68 0 30 3 77 8 104 9 59 3 55 -44 -32 l-36 -67
-50 1 c-79 2 -93 14 -93 82 0 31 5 122 12 201 9 113 9 146 0 149 -16 5 -16 44
0 60 17 17 45 15 115 -9z m713 -318 c0 -14 12 -42 27 -64 34 -50 43 -138 19
-186 l-17 -32 -83 7 c-83 6 -84 6 -101 -20 -36 -55 12 -87 56 -38 33 36 42 38
93 17 44 -18 46 -41 12 -105 -29 -54 -55 -70 -121 -70 -28 0 -56 -5 -62 -11
-9 -9 -20 -9 -42 1 -26 11 -31 18 -31 49 0 20 -7 44 -15 54 -7 10 -19 41 -26
69 -17 75 1 147 48 189 33 28 40 30 77 23 75 -14 120 -11 124 9 5 23 -24 33
-53 17 -20 -11 -30 -8 -75 16 -29 16 -52 32 -51 37 0 4 1 15 1 26 0 10 12 30
26 45 22 22 32 25 64 20 21 -4 46 -2 56 4 25 14 74 -23 74 -57z m-1050 -257
c50 -46 108 -56 148 -27 60 44 68 45 136 24 35 -11 90 -36 122 -57 32 -21 86
-46 119 -56 77 -24 151 -72 180 -117 32 -50 138 -156 185 -186 49 -31 65 -61
79 -153 14 -90 5 -169 -21 -198 -11 -12 -18 -28 -17 -35 4 -20 -23 -59 -41
-59 -33 0 -167 55 -198 82 -24 20 -43 28 -72 28 -21 0 -42 5 -45 11 -4 6 -14
8 -22 5 -9 -4 -22 -1 -29 5 -7 6 -19 7 -26 3 -6 -4 -80 -8 -162 -9 -191 -2
-187 -2 -180 -20 4 -9 0 -15 -10 -15 -9 0 -16 3 -16 8 0 4 -39 7 -87 7 -99 0
-149 17 -177 60 -34 52 -103 112 -142 124 -21 7 -63 24 -93 37 -54 25 -130 49
-211 65 -25 5 -46 14 -48 19 -5 13 -58 13 -81 1 -22 -12 -179 -34 -196 -27 -7
2 -11 15 -8 29 4 21 15 28 66 42 34 9 67 23 72 30 16 20 49 23 62 5 9 -12 35
-15 130 -15 65 0 129 -5 143 -11 47 -21 158 44 236 138 50 59 56 73 56 136 0
90 38 162 85 162 12 0 41 -16 63 -36z m-1360 -50 c0 -8 -4 -14 -10 -14 -5 0
-10 9 -10 21 0 11 5 17 10 14 6 -3 10 -13 10 -21z m787 -270 c-3 -3 -12 -4
-19 -1 -8 3 -5 6 6 6 11 1 17 -2 13 -5z m-418 -101 c3 -5 14 -12 24 -16 9 -3
17 -10 17 -15 0 -12 -108 -14 -115 -2 -3 5 -12 7 -20 4 -28 -11 -39 8 -16 26
24 17 98 20 110 3z m337 -111 c-13 -13 -18 -14 -28 -4 -10 10 -10 15 1 21 8 5
21 7 28 4 12 -5 12 -8 -1 -21z m-358 -24 c4 -20 -6 -22 -43 -8 -32 12 -23 32
13 28 16 -2 28 -10 30 -20z m482 1 c0 -5 -7 -9 -15 -9 -15 0 -20 12 -9 23 8 8
24 -1 24 -14z m108 -31 c-6 -18 -28 -21 -28 -4 0 9 7 16 16 16 9 0 14 -5 12
-12z m132 -63 c0 -17 -18 -19 -39 -6 -8 5 -11 16 -8 25 5 14 11 15 27 6 11 -6
20 -17 20 -25z m548 -126 c-2 -6 -8 -10 -13 -10 -5 0 -11 4 -13 10 -2 6 4 11
13 11 9 0 15 -5 13 -11z m60 0 c-2 -6 -8 -10 -13 -10 -5 0 -11 4 -13 10 -2 6
4 11 13 11 9 0 15 -5 13 -11z m112 -9 c0 -5 -4 -10 -10 -10 -5 0 -10 5 -10 10
0 6 5 10 10 10 6 0 10 -4 10 -10z m125 -10 c3 -6 -1 -13 -10 -16 -19 -8 -30 0
-20 15 8 14 22 14 30 1z m-1851 -37 c4 -9 3 -20 -2 -25 -11 -11 -47 16 -38 30
11 17 33 15 40 -5z m2056 -123 c0 -5 -2 -10 -4 -10 -3 0 -8 5 -11 10 -3 6 -1
10 4 10 6 0 11 -4 11 -10z m225 -50 c3 -6 -1 -13 -10 -16 -19 -8 -30 0 -20 15
8 14 22 14 30 1z m623 -362 c6 -13 15 -39 20 -58 6 -19 40 -138 77 -265 127
-432 153 -535 160 -630 4 -57 4 -58 -6 -20 -17 65 -136 445 -201 640 -71 218
-99 321 -92 340 9 22 29 18 42 -7z m-131 -1443 c8 -23 -5 -31 -27 -17 -11 7
-28 12 -37 12 -15 0 -16 2 -3 10 23 15 60 12 67 -5z m-1254 -31 c6 -6 -16 -34
-26 -34 -3 0 -3 9 0 20 5 20 15 25 26 14z m1317 -29 c0 -20 -5 -25 -25 -25
-16 0 -25 6 -25 15 0 8 7 15 15 15 8 0 15 5 15 10 0 6 5 10 10 10 6 0 10 -11
10 -25z m-1380 -3 c0 -4 -5 -13 -10 -18 -6 -6 -8 -18 -4 -27 7 -20 34 -23 34
-3 0 7 7 19 15 26 13 11 15 8 15 -14 0 -23 4 -26 35 -26 19 0 35 -4 35 -9 0
-13 -261 -4 -273 8 -7 7 -5 12 4 15 51 15 110 39 114 47 7 11 35 12 35 1z
m1080 -2 c-8 -5 -24 -10 -35 -10 -12 0 -26 -5 -32 -11 -6 -6 -16 -8 -22 -4
-14 8 -3 28 13 22 6 -2 20 -1 31 4 11 4 29 8 40 8 17 1 17 -1 5 -9z m54 -25
c-7 -27 8 -39 40 -31 19 5 22 11 18 36 -3 23 -1 30 13 30 14 0 16 -7 13 -30
-3 -16 -2 -30 2 -30 4 0 19 -11 35 -24 23 -20 25 -27 16 -42 -10 -18 -11 -18
-17 3 -6 22 -37 36 -51 23 -15 -15 -83 -29 -89 -18 -3 5 -12 7 -19 4 -14 -5
-28 18 -18 28 4 3 15 6 25 6 10 0 18 7 18 15 0 8 -4 15 -9 15 -5 0 -4 11 2 24
14 30 29 24 21 -9z m-467 -21 c8 -21 -13 -42 -28 -27 -13 13 -5 43 11 43 6 0
13 -7 17 -16z m68 -4 c3 -5 1 -10 -4 -10 -6 0 -11 5 -11 10 0 6 2 10 4 10 3 0
8 -4 11 -10z m320 0 c3 -5 -1 -10 -10 -10 -9 0 -13 5 -10 10 3 6 8 10 10 10 2
0 7 -4 10 -10z m-247 -21 c-18 -7 -33 -7 -45 0 -14 8 -9 10 27 10 42 -1 43 -1
18 -10z m69 0 c-14 -8 -22 -8 -30 0 -8 8 -3 11 19 11 25 -1 27 -2 11 -11z
m-27 -40 c0 -5 -4 -9 -10 -9 -5 0 -10 7 -10 16 0 8 5 12 10 9 6 -3 10 -10 10
-16z m140 1 c0 -5 9 -10 20 -10 21 0 24 -8 14 -34 -9 -22 -31 -20 -39 4 -3 11
-13 20 -21 20 -15 0 -19 12 -7 23 10 11 33 8 33 -3z m-322 -48 c3 -9 -3 -13
-19 -10 -12 1 -24 9 -27 16 -3 9 3 13 19 10 12 -1 24 -9 27 -16z m56 -47 c4
-10 -1 -15 -14 -15 -20 0 -26 11 -13 23 10 11 20 8 27 -8z m626 0 c0 -8 -9
-15 -20 -15 -20 0 -26 11 -13 23 12 13 33 7 33 -8z m-552 -7 c14 -14 15 -28 3
-47 -13 -21 -51 4 -51 34 0 27 27 34 48 13z m532 -40 c0 -13 -48 -9 -53 5 -3
9 -9 9 -26 -1 -17 -10 -21 -10 -21 2 0 9 12 16 28 18 28 3 72 -12 72 -24z
m-610 -7 c0 -14 -12 -20 -26 -14 -22 8 -17 32 6 26 11 -3 20 -9 20 -12z m-262
-85 c17 -9 32 -23 32 -31 0 -8 7 -15 15 -15 34 0 11 -43 -60 -115 -41 -42 -79
-74 -84 -71 -9 6 -13 171 -5 227 5 35 7 36 37 29 18 -4 47 -14 65 -24z m882 4
c0 -5 -9 -10 -20 -10 -11 0 -20 5 -20 10 0 6 9 10 20 10 11 0 20 -4 20 -10z
m-490 -130 c0 -5 -4 -10 -10 -10 -5 0 -10 5 -10 10 0 6 5 10 10 10 6 0 10 -4
10 -10z m117 -26 c-3 -3 -12 -4 -19 -1 -8 3 -5 6 6 6 11 1 17 -2 13 -5z"/>
<path d="M2395 4123 c-9 -20 -13 -44 -10 -52 9 -23 34 8 42 52 8 49 -12 49
-32 0z"/>
<path d="M1955 4156 c-11 -11 -31 -29 -45 -39 -14 -10 -19 -15 -12 -12 21 11
52 -5 52 -27 0 -11 -16 -35 -35 -52 -38 -35 -44 -66 -19 -87 15 -12 19 -10 33
10 9 14 26 63 38 110 32 125 30 142 -12 97z"/>
<path d="M1993 2157 c-30 -9 -33 -14 -33 -48 0 -30 6 -43 32 -64 29 -24 37
-26 85 -20 29 3 53 3 53 -2 0 -4 15 -25 33 -47 30 -36 38 -39 102 -47 39 -4
97 -13 130 -19 56 -11 63 -10 105 12 l45 23 3 65 c3 73 -12 115 -36 101 -10
-6 -36 -2 -69 10 -31 10 -55 14 -58 8 -4 -5 -12 -9 -19 -9 -8 0 -35 -10 -62
-22 -81 -36 -174 -27 -174 18 0 14 -38 35 -85 47 -11 2 -35 0 -52 -6z"/>
<path d="M1740 1757 c-14 -7 -26 -19 -28 -27 -3 -16 24 -25 153 -54 108 -25
175 -46 215 -66 22 -11 57 -20 78 -20 89 0 149 -56 86 -80 -21 -8 -24 -13 -14
-25 10 -12 7 -15 -16 -21 -16 -4 -35 -2 -48 6 -23 15 -190 42 -211 34 -27 -11
-26 -37 2 -67 48 -50 112 -81 183 -89 110 -12 115 -13 126 -27 11 -14 109 -31
133 -23 6 2 11 28 11 62 0 49 -3 58 -20 63 -29 7 -25 18 21 56 38 31 44 33 73
23 17 -6 45 -13 63 -17 22 -4 30 -11 26 -21 -7 -18 23 -19 34 0 4 7 22 17 38
23 17 5 32 18 33 28 3 15 -1 17 -30 11 -79 -16 -83 -15 -86 32 -3 34 -8 45
-27 52 -13 5 -26 13 -29 19 -3 5 -24 12 -46 16 -21 4 -59 20 -83 35 -48 33
-148 47 -208 30 -25 -8 -46 -5 -89 9 -106 36 -301 57 -340 38z"/>
<path d="M1492 889 c2 -6 8 -10 13 -10 5 0 11 4 13 10 2 6 -4 11 -13 11 -9 0
-15 -5 -13 -11z"/>
<path d="M1535 800 c-8 -13 3 -30 21 -30 18 0 18 14 0 29 -10 8 -16 9 -21 1z"/>
<path d="M1265 695 c-15 -29 -16 -40 -6 -58 8 -14 9 -32 4 -47 -9 -27 -9 -54
2 -205 3 -55 6 -110 7 -122 0 -13 4 -23 9 -23 5 0 9 -11 9 -24 0 -33 10 -57
21 -50 13 8 11 420 -2 490 -15 77 -23 84 -44 39z"/>
<path d="M1095 545 c-16 -8 -50 -14 -75 -15 -30 0 -57 -8 -80 -23 -55 -36
-129 -66 -210 -86 -41 -10 -113 -31 -160 -46 -47 -15 -107 -33 -135 -40 -27
-7 -95 -26 -150 -43 -55 -17 -142 -43 -192 -59 l-93 -27 0 -103 0 -103 448 0
448 0 12 93 c14 101 54 237 83 279 11 14 19 29 19 32 0 13 47 58 80 78 42 25
80 58 80 70 0 12 -41 8 -75 -7z"/>
<path d="M4100 270 c0 -5 5 -10 10 -10 6 0 10 5 10 10 0 6 -4 10 -10 10 -5 0
-10 -4 -10 -10z"/>
</g>
</svg>
